<svg width="25" height="25" viewBox="0 0 25 25" fill="none" xmlns="http://www.w3.org/2000/svg">
<path d="M17.7084 18.7502C18.2609 18.7502 18.7909 18.9697 19.1816 19.3604C19.5723 19.7511 19.7917 20.281 19.7917 20.8335C19.7917 21.386 19.5723 21.9159 19.1816 22.3066C18.7909 22.6973 18.2609 22.9168 17.7084 22.9168C17.1559 22.9168 16.626 22.6973 16.2353 22.3066C15.8446 21.9159 15.6251 21.386 15.6251 20.8335C15.6251 19.6772 16.5522 18.7502 17.7084 18.7502ZM1.04175 2.0835H4.448L5.42716 4.16683H20.8334C21.1097 4.16683 21.3746 4.27658 21.57 4.47193C21.7653 4.66728 21.8751 4.93223 21.8751 5.2085C21.8751 5.38558 21.823 5.56266 21.7501 5.72933L18.0209 12.4689C17.6667 13.1043 16.9792 13.5418 16.198 13.5418H8.43758L7.50008 15.2397L7.46883 15.3647C7.46883 15.4338 7.49627 15.5001 7.54511 15.5489C7.59394 15.5977 7.66018 15.6252 7.72925 15.6252H19.7917V17.7085H7.29175C6.73921 17.7085 6.20931 17.489 5.81861 17.0983C5.42791 16.7076 5.20841 16.1777 5.20841 15.6252C5.20841 15.2606 5.30216 14.9168 5.45841 14.6252L6.87508 12.0731L3.12508 4.16683H1.04175V2.0835ZM7.29175 18.7502C7.84428 18.7502 8.37419 18.9697 8.76489 19.3604C9.15559 19.7511 9.37508 20.281 9.37508 20.8335C9.37508 21.386 9.15559 21.9159 8.76489 22.3066C8.37419 22.6973 7.84428 22.9168 7.29175 22.9168C6.73921 22.9168 6.20931 22.6973 5.81861 22.3066C5.42791 21.9159 5.20841 21.386 5.20841 20.8335C5.20841 19.6772 6.1355 18.7502 7.29175 18.7502ZM16.6667 11.4585L19.5626 6.25016H6.39591L8.85425 11.4585H16.6667Z" fill="#484C52"/>
</svg>
